<svg width="148" height="148" viewBox="0 0 148 148" fill="none" xmlns="http://www.w3.org/2000/svg">
<path d="M74 74C63.825 74 55.1146 70.3771 47.8687 63.1312C40.6229 55.8854 37 47.175 37 37C37 26.825 40.6229 18.1146 47.8687 10.8687C55.1146 3.62292 63.825 0 74 0C84.175 0 92.8854 3.62292 100.131 10.8687C107.377 18.1146 111 26.825 111 37C111 47.175 107.377 55.8854 100.131 63.1312C92.8854 70.3771 84.175 74 74 74ZM0 148V122.1C0 116.858 1.3505 112.042 4.0515 107.651C6.7525 103.261 10.3353 99.9061 14.8 97.5875C24.3583 92.8083 34.0708 89.2255 43.9375 86.839C53.8042 84.4525 63.825 83.2561 74 83.25C84.175 83.2438 94.1958 84.4401 104.062 86.839C113.929 89.2378 123.642 92.8206 133.2 97.5875C137.671 99.9 141.257 103.255 143.958 107.651C146.659 112.048 148.006 116.864 148 122.1V148H0Z" fill="#E7E2F7"/>
</svg>
