<svg width="16" height="17" viewBox="0 0 16 17" fill="none" xmlns="http://www.w3.org/2000/svg">
<path fill-rule="evenodd" clip-rule="evenodd" d="M14 4.5V14C14 14.5304 13.7893 15.0391 13.4142 15.4142C13.0391 15.7893 12.5304 16 12 16V15C12.2652 15 12.5196 14.8946 12.7071 14.7071C12.8946 14.5196 13 14.2652 13 14V4.5H11C10.6022 4.5 10.2206 4.34196 9.93934 4.06066C9.65804 3.77936 9.5 3.39782 9.5 3V1H4C3.73478 1 3.48043 1.10536 3.29289 1.29289C3.10536 1.48043 3 1.73478 3 2V11H2V2C2 1.46957 2.21071 0.960859 2.58579 0.585786C2.96086 0.210714 3.46957 0 4 0L9.5 0L14 4.5ZM9.089 14.17H8.646V13.561H9.068C9.17962 13.5627 9.29002 13.5377 9.39 13.488C9.48001 13.4424 9.55603 13.3733 9.61 13.288C9.66322 13.2031 9.6897 13.1041 9.686 13.004C9.68837 12.9296 9.67376 12.8556 9.64326 12.7877C9.61276 12.7198 9.56719 12.6597 9.51 12.612C9.38632 12.509 9.22882 12.4556 9.068 12.462C8.9822 12.4601 8.89678 12.474 8.816 12.503C8.74523 12.5279 8.67976 12.5659 8.623 12.615C8.57118 12.6581 8.52861 12.7112 8.49785 12.7712C8.46709 12.8312 8.44877 12.8968 8.444 12.964H7.71C7.716 12.8073 7.75 12.6617 7.812 12.527C7.87467 12.3923 7.96467 12.275 8.082 12.175C8.19933 12.0737 8.342 11.9947 8.51 11.938C8.68 11.8813 8.87433 11.852 9.093 11.85C9.37167 11.848 9.61267 11.892 9.816 11.982C10.0187 12.072 10.176 12.196 10.288 12.354C10.4021 12.5104 10.4628 12.6994 10.461 12.893C10.4703 13.0608 10.4285 13.2275 10.341 13.371C10.2731 13.4824 10.1831 13.5788 10.0767 13.6543C9.97029 13.7297 9.8496 13.7827 9.722 13.81V13.851C9.86597 13.867 10.0047 13.9141 10.1287 13.9891C10.2527 14.064 10.3589 14.165 10.44 14.285C10.5402 14.4398 10.5905 14.6217 10.584 14.806C10.586 14.996 10.547 15.165 10.467 15.313C10.3879 15.4626 10.2753 15.592 10.138 15.691C9.998 15.7923 9.836 15.8703 9.652 15.925C9.47 15.9783 9.27567 16.005 9.069 16.005C8.76833 16.005 8.51167 15.954 8.299 15.852C8.10271 15.7617 7.93446 15.62 7.812 15.442C7.70247 15.2741 7.64091 15.0794 7.634 14.879H8.36C8.36778 14.9739 8.40482 15.064 8.466 15.137C8.53475 15.2143 8.61979 15.2755 8.715 15.316C8.82891 15.3599 8.94991 15.3826 9.072 15.383C9.20403 15.3861 9.33513 15.3602 9.456 15.307C9.55877 15.2599 9.64612 15.1846 9.708 15.09C9.7688 14.995 9.79947 14.8838 9.796 14.771C9.79789 14.6608 9.7672 14.5524 9.70779 14.4596C9.64837 14.3667 9.56287 14.2935 9.462 14.249C9.34615 14.1931 9.21855 14.166 9.09 14.17H9.089ZM0.706 15.925V13.265H0.744L1.696 15.425H2.212L3.158 13.265H3.196V15.925H3.911V11.926H3.111L1.971 14.522H1.945L0.805 11.926H0V15.926L0.706 15.925ZM6.164 11.926H4.564V15.926H5.356V14.584H6.159C6.44567 14.584 6.68967 14.5263 6.891 14.411C7.09367 14.293 7.248 14.1347 7.354 13.936C7.46379 13.7275 7.51917 13.4946 7.515 13.259C7.515 13.0097 7.46233 12.784 7.357 12.582C7.25148 12.383 7.09207 12.2177 6.897 12.105C6.67365 11.9794 6.42011 11.9175 6.164 11.926ZM6.709 13.259C6.71256 13.3911 6.68336 13.522 6.624 13.64C6.57102 13.7421 6.4884 13.8257 6.387 13.88C6.27051 13.9374 6.1418 13.9655 6.012 13.962H5.352V12.556H6.012C6.23067 12.556 6.40167 12.6167 6.525 12.738C6.64767 12.8587 6.709 13.0323 6.709 13.259Z" fill="black"/>
</svg>
