<svg width="17" height="17" viewBox="0 0 17 17" fill="none" xmlns="http://www.w3.org/2000/svg">
<path d="M7.30999 12.41L13.3025 6.4175L12.1125 5.2275L7.30999 10.03L4.8875 7.6075L3.6975 8.7975L7.30999 12.41ZM8.49999 17C7.32416 17 6.21916 16.7767 5.185 16.3302C4.15083 15.8837 3.25125 15.2782 2.48625 14.5137C1.72125 13.7493 1.11577 12.8497 0.669801 11.815C0.223834 10.7803 0.000567742 9.67526 1.07595e-06 8.5C-0.00056559 7.32473 0.222701 6.21973 0.669801 5.185C1.1169 4.15027 1.72238 3.25068 2.48625 2.48625C3.25011 1.72182 4.1497 1.11633 5.185 0.6698C6.2203 0.223267 7.32529 0 8.49999 0C9.67469 0 10.7797 0.223267 11.815 0.6698C12.8503 1.11633 13.7499 1.72182 14.5137 2.48625C15.2776 3.25068 15.8834 4.15027 16.331 5.185C16.7787 6.21973 17.0017 7.32473 17 8.5C16.9983 9.67526 16.775 10.7803 16.3302 11.815C15.8854 12.8497 15.2799 13.7493 14.5137 14.5137C13.7476 15.2782 12.848 15.8839 11.815 16.331C10.782 16.7781 9.67696 17.0011 8.49999 17ZM8.49999 15.3C10.3983 15.3 12.0062 14.6412 13.3237 13.3237C14.6412 12.0062 15.3 10.3983 15.3 8.5C15.3 6.60166 14.6412 4.99375 13.3237 3.67625C12.0062 2.35875 10.3983 1.7 8.49999 1.7C6.60166 1.7 4.99375 2.35875 3.67625 3.67625C2.35875 4.99375 1.7 6.60166 1.7 8.5C1.7 10.3983 2.35875 12.0062 3.67625 13.3237C4.99375 14.6412 6.60166 15.3 8.49999 15.3Z" fill="#58BF13"/>
</svg>
