<svg width="59" height="59" viewBox="0 0 59 59" fill="none" xmlns="http://www.w3.org/2000/svg">
<path d="M51.2949 43.4014C48.8325 46.6659 45.6456 49.3139 41.9852 51.1366C38.3257 52.9587 34.293 53.9058 30.2049 53.904L30.2052 53.9043C30.2046 53.9043 30.204 53.904 30.2034 53.904C30.203 53.904 30.2026 53.9043 30.2022 53.9043C26.1131 53.9085 22.0791 52.962 18.4186 51.1396C14.7572 49.3167 11.5697 46.6673 9.1083 43.4008L12.0531 41.1817C14.1704 43.9916 16.9123 46.2705 20.0619 47.8386C23.2115 49.4067 26.6826 50.2208 30.201 50.2168H30.204L30.5338 50.2147C33.9387 50.1672 37.2909 49.3546 40.3416 47.8356C43.4907 46.2675 46.2325 43.9893 48.351 41.1808L51.2949 43.4014ZM13.8698 20.0974V23.7849H7.46351V25.7712H12.8399V29.4587H7.46351V36.1624H3.77601V20.0974H13.8698ZM41.5483 20.0974V23.7849H35.1396V25.7712H40.5157V29.4587H35.1396V32.4749H41.5483V36.1624H31.4521V20.0974H41.5483ZM54.784 20.0974V23.7849H48.3801V25.7712H53.7565V29.4587H48.3801V32.4749H54.7864V36.1624H44.6926V20.0974H54.784ZM20.6993 27.3175H25.2642V23.7849H20.6993V27.3175ZM30.2049 1.05041C38.8207 1.05099 46.4715 5.17653 51.2934 11.5511L48.3525 13.7757C44.1969 8.28193 37.6149 4.73761 30.2031 4.73761H30.201C26.6826 4.73355 23.2115 5.54773 20.0619 7.11582C16.9123 8.68391 14.1704 10.9631 12.0531 13.773L9.1083 11.5538C11.5698 8.28728 14.7571 5.63776 18.4186 3.81484C22.0794 1.99226 26.1137 1.04602 30.2031 1.05041H30.204C30.2044 1.05041 30.2048 1.05011 30.2052 1.05011L30.2049 1.05041ZM28.9517 27.3569L28.9472 27.5375C28.9025 28.4392 28.5248 29.295 27.8834 29.9364C27.6482 30.1716 27.3834 30.37 27.099 30.5309L29.7509 34.6151L26.6581 36.6233L23.0102 31.005H20.6993V36.1624H17.0118V20.0974H25.3035C27.3174 20.0974 28.9517 21.7317 28.9517 23.7456V27.3569Z" fill="#4CDB8F"/>
</svg>
