<svg width="20" height="18" viewBox="0 0 20 18" fill="none" xmlns="http://www.w3.org/2000/svg">
<path d="M13.192 13.3333L15.5013 17.3333H13.9627L11.6533 13.3333H8.35467L6.04533 17.3333H4.50667L6.816 13.3333H2.66667C2.48986 13.3333 2.32029 13.2631 2.19526 13.1381C2.07024 13.013 2 12.8435 2 12.6667V1.33333H0.666667C0.489856 1.33333 0.320286 1.2631 0.195262 1.13807C0.0702379 1.01305 0 0.843478 0 0.666667C0 0.489856 0.0702379 0.320287 0.195262 0.195262C0.320286 0.070238 0.489856 0 0.666667 0H19.3333C19.5101 0 19.6797 0.070238 19.8047 0.195262C19.9298 0.320287 20 0.489856 20 0.666667C20 0.843478 19.9298 1.01305 19.8047 1.13807C19.6797 1.2631 19.5101 1.33333 19.3333 1.33333H18V12.6667C18 12.8435 17.9298 13.013 17.8047 13.1381C17.6797 13.2631 17.5101 13.3333 17.3333 13.3333H13.192ZM16.6667 1.33333H3.33333V12H16.6667V1.33333ZM6.66667 6.66667C6.84348 6.66667 7.01305 6.7369 7.13807 6.86193C7.2631 6.98695 7.33333 7.15652 7.33333 7.33333V8.66667C7.33333 8.84348 7.2631 9.01305 7.13807 9.13807C7.01305 9.2631 6.84348 9.33333 6.66667 9.33333C6.48986 9.33333 6.32029 9.2631 6.19526 9.13807C6.07024 9.01305 6 8.84348 6 8.66667V7.33333C6 7.15652 6.07024 6.98695 6.19526 6.86193C6.32029 6.7369 6.48986 6.66667 6.66667 6.66667ZM10 5.33333C10.1768 5.33333 10.3464 5.40357 10.4714 5.5286C10.5964 5.65362 10.6667 5.82319 10.6667 6V8.66667C10.6667 8.84348 10.5964 9.01305 10.4714 9.13807C10.3464 9.2631 10.1768 9.33333 10 9.33333C9.82319 9.33333 9.65362 9.2631 9.5286 9.13807C9.40357 9.01305 9.33333 8.84348 9.33333 8.66667V6C9.33333 5.82319 9.40357 5.65362 9.5286 5.5286C9.65362 5.40357 9.82319 5.33333 10 5.33333ZM13.3333 4C13.5101 4 13.6797 4.07024 13.8047 4.19526C13.9298 4.32029 14 4.48986 14 4.66667V8.66667C14 8.84348 13.9298 9.01305 13.8047 9.13807C13.6797 9.2631 13.5101 9.33333 13.3333 9.33333C13.1565 9.33333 12.987 9.2631 12.8619 9.13807C12.7369 9.01305 12.6667 8.84348 12.6667 8.66667V4.66667C12.6667 4.48986 12.7369 4.32029 12.8619 4.19526C12.987 4.07024 13.1565 4 13.3333 4Z" fill="black"/>
</svg>
