<svg width="19" height="18" viewBox="0 0 19 18" fill="none" xmlns="http://www.w3.org/2000/svg">
<path d="M7.54955 1.80772C8.31403 0.405969 10.3268 0.405969 11.0913 1.80772L12.318 4.05715C12.6081 4.5891 13.122 4.96246 13.7176 5.074L16.236 5.54561C17.8054 5.8395 18.4274 7.7538 17.3304 8.91402L15.5702 10.7758C15.154 11.2161 14.9576 11.8202 15.0356 12.4211L15.3654 14.9621C15.5708 16.5454 13.9424 17.7285 12.5 17.0438L10.1854 15.945C9.63794 15.6852 9.00276 15.6852 8.45543 15.945L6.14074 17.0438C4.69833 17.7285 3.06998 16.5454 3.27544 14.9621L3.60514 12.4211C3.68311 11.8202 3.48682 11.2161 3.07055 10.7758L1.31032 8.91402C0.213405 7.7538 0.835373 5.8395 2.40477 5.54561L4.92318 5.074C5.51875 4.96246 6.03265 4.5891 6.32275 4.05715L7.54955 1.80772Z" stroke="#252432" stroke-width="1.5" stroke-linejoin="round"/>
</svg>
