<svg width="29" height="20" viewBox="0 0 29 20" fill="none" xmlns="http://www.w3.org/2000/svg">
<mask id="path-1-outside-1_2112_554" maskUnits="userSpaceOnUse" x="0" y="0.144531" width="29" height="19" fill="black">
<rect fill="white" y="0.144531" width="29" height="19"/>
<path d="M1.31378 11.7605V7.70453C1.31378 3.67253 3.85778 1.05653 7.74578 1.05653C11.6338 1.05653 14.1778 3.67253 14.1778 7.70453V11.7605C14.1778 15.7925 11.6338 18.4325 7.74578 18.4325C3.85778 18.4325 1.31378 15.7925 1.31378 11.7605ZM11.7538 11.6885V7.77653C11.7538 4.94453 10.2178 3.19253 7.74578 3.19253C5.27378 3.19253 3.73778 4.94453 3.73778 7.77653V11.6885C3.73778 14.5205 5.27378 16.2965 7.74578 16.2965C10.2178 16.2965 11.7538 14.5445 11.7538 11.6885ZM21.8355 1.10453C24.9315 1.10453 27.3075 3.21653 27.3075 5.85653C27.3075 7.32053 26.5155 8.61653 25.2675 9.36053C26.8515 10.0805 27.9075 11.5925 27.9075 13.3205C27.9075 16.1045 25.4355 18.4085 22.0515 18.4085C19.3635 18.4085 17.3475 17.3765 15.9795 15.7205L17.6835 14.2085C18.6915 15.5045 20.1555 16.3445 21.9315 16.3445C23.9715 16.3445 25.4355 15.0245 25.4355 13.3925C25.4355 11.8325 24.2115 10.5605 22.3875 10.5605H20.0595V8.47253H22.0755C23.7315 8.47253 24.8355 7.34453 24.8355 5.88053C24.8355 4.34453 23.4915 3.16853 21.6435 3.16853C20.0835 3.16853 18.8115 3.98453 17.8755 5.18453L16.2435 3.76853C17.5635 2.13653 19.3635 1.10453 21.8355 1.10453Z"/>
</mask>
<path d="M1.31378 11.7605H2.01378V7.70453H1.31378H0.613782V11.7605H1.31378ZM1.31378 7.70453H2.01378C2.01378 5.83707 2.60045 4.36095 3.57451 3.35563C4.54654 2.35242 5.96354 1.75653 7.74578 1.75653V1.05653V0.356531C5.64002 0.356531 3.84103 1.06865 2.56905 2.38143C1.29912 3.69212 0.613782 5.53999 0.613782 7.70453H1.31378ZM7.74578 1.05653V1.75653C9.52802 1.75653 10.945 2.35242 11.9171 3.35563C12.8911 4.36094 13.4778 5.83707 13.4778 7.70453H14.1778H14.8778C14.8778 5.54 14.1924 3.69212 12.9225 2.38143C11.6505 1.06865 9.85154 0.356531 7.74578 0.356531V1.05653ZM14.1778 7.70453H13.4778V11.7605H14.1778H14.8778V7.70453H14.1778ZM14.1778 11.7605H13.4778C13.4778 13.6282 12.891 15.1111 11.9158 16.1227C10.943 17.1319 9.52613 17.7325 7.74578 17.7325V18.4325V19.1325C9.85344 19.1325 11.6525 18.4132 12.9238 17.0943C14.1926 15.778 14.8778 13.9249 14.8778 11.7605H14.1778ZM7.74578 18.4325V17.7325C5.96544 17.7325 4.54853 17.1319 3.57577 16.1227C2.60061 15.1111 2.01378 13.6282 2.01378 11.7605H1.31378H0.613782C0.613782 13.9249 1.29896 15.778 2.5678 17.0943C3.83903 18.4132 5.63813 19.1325 7.74578 19.1325V18.4325ZM11.7538 11.6885H12.4538V7.77653H11.7538H11.0538V11.6885H11.7538ZM11.7538 7.77653H12.4538C12.4538 6.23905 12.0363 4.91323 11.2036 3.96158C10.3613 2.99901 9.15745 2.49253 7.74578 2.49253V3.19253V3.89253C8.80612 3.89253 9.60623 4.26205 10.15 4.88348C10.7033 5.51583 11.0538 6.48201 11.0538 7.77653H11.7538ZM7.74578 3.19253V2.49253C6.33412 2.49253 5.13022 2.99901 4.28798 3.96158C3.45528 4.91323 3.03778 6.23905 3.03778 7.77653H3.73778H4.43778C4.43778 6.48201 4.78828 5.51583 5.34159 4.88348C5.88534 4.26205 6.68545 3.89253 7.74578 3.89253V3.19253ZM3.73778 7.77653H3.03778V11.6885H3.73778H4.43778V7.77653H3.73778ZM3.73778 11.6885H3.03778C3.03778 13.2259 3.45518 14.5565 4.28626 15.5135C5.1272 16.4819 6.33106 16.9965 7.74578 16.9965V16.2965V15.5965C6.6885 15.5965 5.88836 15.2232 5.3433 14.5956C4.78838 13.9566 4.43778 12.9832 4.43778 11.6885H3.73778ZM7.74578 16.2965V16.9965C9.15758 16.9965 10.362 16.4899 11.2044 15.5235C12.037 14.5684 12.4538 13.2367 12.4538 11.6885H11.7538H11.0538C11.0538 12.9964 10.7026 13.9687 10.1491 14.6036C9.60554 15.2272 8.80598 15.5965 7.74578 15.5965V16.2965ZM25.2675 9.36053L24.909 8.75927L23.76 9.44425L24.9778 9.99779L25.2675 9.36053ZM15.9795 15.7205L15.5149 15.1969L15.0095 15.6454L15.4398 16.1663L15.9795 15.7205ZM17.6835 14.2085L18.236 13.7788L17.7775 13.1893L17.2189 13.6849L17.6835 14.2085ZM20.0595 10.5605H19.3595V11.2605H20.0595V10.5605ZM20.0595 8.47253V7.77253H19.3595V8.47253H20.0595ZM17.8755 5.18453L17.4167 5.71326L17.9738 6.19661L18.4274 5.61505L17.8755 5.18453ZM16.2435 3.76853L15.6992 3.32832L15.274 3.85409L15.7847 4.29726L16.2435 3.76853ZM21.8355 1.10453V1.80453C24.6359 1.80453 26.6075 3.68827 26.6075 5.85653H27.3075H28.0075C28.0075 2.74479 25.227 0.404531 21.8355 0.404531V1.10453ZM27.3075 5.85653H26.6075C26.6075 7.05656 25.9606 8.13238 24.909 8.75927L25.2675 9.36053L25.6259 9.96179C27.0704 9.10068 28.0075 7.5845 28.0075 5.85653H27.3075ZM25.2675 9.36053L24.9778 9.99779C26.3345 10.6145 27.2075 11.891 27.2075 13.3205H27.9075H28.6075C28.6075 11.2941 27.3685 9.5466 25.5571 8.72327L25.2675 9.36053ZM27.9075 13.3205H27.2075C27.2075 15.6418 25.1297 17.7085 22.0515 17.7085V18.4085V19.1085C25.7413 19.1085 28.6075 16.5672 28.6075 13.3205H27.9075ZM22.0515 18.4085V17.7085C19.5628 17.7085 17.7483 16.7626 16.5191 15.2747L15.9795 15.7205L15.4398 16.1663C16.9467 17.9905 19.1641 19.1085 22.0515 19.1085V18.4085ZM15.9795 15.7205L16.4441 16.2441L18.1481 14.7321L17.6835 14.2085L17.2189 13.6849L15.5149 15.1969L15.9795 15.7205ZM17.6835 14.2085L17.1309 14.6383C18.2549 16.0834 19.9137 17.0445 21.9315 17.0445V16.3445V15.6445C20.3972 15.6445 19.128 14.9257 18.236 13.7788L17.6835 14.2085ZM21.9315 16.3445V17.0445C24.2552 17.0445 26.1355 15.5065 26.1355 13.3925H25.4355H24.7355C24.7355 14.5425 23.6877 15.6445 21.9315 15.6445V16.3445ZM25.4355 13.3925H26.1355C26.1355 11.4197 24.5713 9.86053 22.3875 9.86053V10.5605V11.2605C23.8516 11.2605 24.7355 12.2453 24.7355 13.3925H25.4355ZM22.3875 10.5605V9.86053H20.0595V10.5605V11.2605H22.3875V10.5605ZM20.0595 10.5605H20.7595V8.47253H20.0595H19.3595V10.5605H20.0595ZM20.0595 8.47253V9.17253H22.0755V8.47253V7.77253H20.0595V8.47253ZM22.0755 8.47253V9.17253C24.0928 9.17253 25.5355 7.75595 25.5355 5.88053H24.8355H24.1355C24.1355 6.93311 23.3702 7.77253 22.0755 7.77253V8.47253ZM24.8355 5.88053H25.5355C25.5355 3.86058 23.7729 2.46853 21.6435 2.46853V3.16853V3.86853C23.21 3.86853 24.1355 4.82848 24.1355 5.88053H24.8355ZM21.6435 3.16853V2.46853C19.8114 2.46853 18.3531 3.43402 17.3235 4.75401L17.8755 5.18453L18.4274 5.61505C19.2698 4.53504 20.3555 3.86853 21.6435 3.86853V3.16853ZM17.8755 5.18453L18.3342 4.6558L16.7022 3.2398L16.2435 3.76853L15.7847 4.29726L17.4167 5.71326L17.8755 5.18453ZM16.2435 3.76853L16.7877 4.20874C17.987 2.72606 19.5934 1.80453 21.8355 1.80453V1.10453V0.404531C19.1336 0.404531 17.14 1.547 15.6992 3.32832L16.2435 3.76853Z" fill="#9196E3" mask="url(#path-1-outside-1_2112_554)"/>
</svg>
