<svg width="28" height="19" viewBox="0 0 28 19" fill="none" xmlns="http://www.w3.org/2000/svg">
<mask id="path-1-outside-1_2112_552" maskUnits="userSpaceOnUse" x="0" y="0" width="28" height="19" fill="black">
<rect fill="white" width="28" height="19"/>
<path d="M1.25909 11.616V7.56C1.25909 3.528 3.80309 0.912 7.69109 0.912C11.5791 0.912 14.1231 3.528 14.1231 7.56V11.616C14.1231 15.648 11.5791 18.288 7.69109 18.288C3.80309 18.288 1.25909 15.648 1.25909 11.616ZM11.6991 11.544V7.632C11.6991 4.8 10.1631 3.048 7.69109 3.048C5.21909 3.048 3.68309 4.8 3.68309 7.632V11.544C3.68309 14.376 5.21909 16.152 7.69109 16.152C10.1631 16.152 11.6991 14.4 11.6991 11.544ZM26.8521 5.928C26.8761 7.92 26.0121 9.36 24.1161 11.28L19.6041 15.864H27.0201V18H15.9801V16.488L22.3881 9.864C23.7801 8.448 24.4041 7.536 24.4041 6.12C24.4041 4.368 22.9641 3.072 21.0681 3.072C19.5801 3.072 18.3081 3.792 17.2761 5.16L15.6201 3.72C16.9881 1.944 18.9561 0.959999 21.2841 0.959999C24.5001 0.959999 26.8521 3.072 26.8521 5.928Z"/>
</mask>
<path d="M1.25909 11.616H1.95909V7.56H1.25909H0.559094V11.616H1.25909ZM1.25909 7.56H1.95909C1.95909 5.69253 2.54576 4.21641 3.51982 3.2111C4.49185 2.20788 5.90885 1.612 7.69109 1.612V0.912V0.212C5.58533 0.212 3.78634 0.924115 2.51437 2.2369C1.24443 3.54758 0.559094 5.39546 0.559094 7.56H1.25909ZM7.69109 0.912V1.612C9.47334 1.612 10.8903 2.20788 11.8624 3.2111C12.8364 4.21641 13.4231 5.69253 13.4231 7.56H14.1231H14.8231C14.8231 5.39546 14.1378 3.54758 12.8678 2.2369C11.5958 0.924115 9.79685 0.212 7.69109 0.212V0.912ZM14.1231 7.56H13.4231V11.616H14.1231H14.8231V7.56H14.1231ZM14.1231 11.616H13.4231C13.4231 13.4836 12.8363 14.9665 11.8611 15.9782C10.8883 16.9874 9.47144 17.588 7.69109 17.588V18.288V18.988C9.79875 18.988 11.5978 18.2686 12.8691 16.9498C14.1379 15.6335 14.8231 13.7804 14.8231 11.616H14.1231ZM7.69109 18.288V17.588C5.91075 17.588 4.49384 16.9874 3.52108 15.9782C2.54592 14.9665 1.95909 13.4836 1.95909 11.616H1.25909H0.559094C0.559094 13.7804 1.24427 15.6335 2.51311 16.9498C3.78435 18.2686 5.58344 18.988 7.69109 18.988V18.288ZM11.6991 11.544H12.3991V7.632H11.6991H10.9991V11.544H11.6991ZM11.6991 7.632H12.3991C12.3991 6.09452 11.9816 4.7687 11.1489 3.81705C10.3067 2.85448 9.10276 2.348 7.69109 2.348V3.048V3.748C8.75143 3.748 9.55154 4.11752 10.0953 4.73895C10.6486 5.3713 10.9991 6.33748 10.9991 7.632H11.6991ZM7.69109 3.048V2.348C6.27943 2.348 5.07554 2.85448 4.23329 3.81705C3.40059 4.7687 2.98309 6.09452 2.98309 7.632H3.68309H4.38309C4.38309 6.33748 4.7336 5.3713 5.2869 4.73895C5.83065 4.11752 6.63076 3.748 7.69109 3.748V3.048ZM3.68309 7.632H2.98309V11.544H3.68309H4.38309V7.632H3.68309ZM3.68309 11.544H2.98309C2.98309 13.0814 3.40049 14.412 4.23157 15.369C5.07252 16.3373 6.27637 16.852 7.69109 16.852V16.152V15.452C6.63382 15.452 5.83367 15.0787 5.28862 14.451C4.7337 13.812 4.38309 12.8386 4.38309 11.544H3.68309ZM7.69109 16.152V16.852C9.10289 16.852 10.3073 16.3454 11.1498 15.379C11.9823 14.4239 12.3991 13.0921 12.3991 11.544H11.6991H10.9991C10.9991 12.8519 10.6479 13.8241 10.0944 14.459C9.55085 15.0826 8.75129 15.452 7.69109 15.452V16.152ZM26.8521 5.928H26.152L26.1521 5.93643L26.8521 5.928ZM24.1161 11.28L23.618 10.7881L23.6172 10.789L24.1161 11.28ZM19.6041 15.864L19.1052 15.373L17.9329 16.564H19.6041V15.864ZM27.0201 15.864H27.7201V15.164H27.0201V15.864ZM27.0201 18V18.7H27.7201V18H27.0201ZM15.9801 18H15.2801V18.7H15.9801V18ZM15.9801 16.488L15.477 16.0013L15.2801 16.2048V16.488H15.9801ZM22.3881 9.864L21.8889 9.37326L21.885 9.3773L22.3881 9.864ZM17.2761 5.16L16.8168 5.68822L17.383 6.18061L17.8349 5.58157L17.2761 5.16ZM15.6201 3.72L15.0655 3.29284L14.663 3.8154L15.1608 4.24822L15.6201 3.72ZM26.8521 5.928L26.1521 5.93643C26.1728 7.6496 25.4654 8.91735 23.618 10.7881L24.1161 11.28L24.6142 11.7719C26.5588 9.80265 27.5794 8.1904 27.552 5.91957L26.8521 5.928ZM24.1161 11.28L23.6172 10.789L19.1052 15.373L19.6041 15.864L20.103 16.355L24.615 11.771L24.1161 11.28ZM19.6041 15.864V16.564H27.0201V15.864V15.164H19.6041V15.864ZM27.0201 15.864H26.3201V18H27.0201H27.7201V15.864H27.0201ZM27.0201 18V17.3H15.9801V18V18.7H27.0201V18ZM15.9801 18H16.6801V16.488H15.9801H15.2801V18H15.9801ZM15.9801 16.488L16.4832 16.9747L22.8912 10.3507L22.3881 9.864L21.885 9.3773L15.477 16.0013L15.9801 16.488ZM22.3881 9.864L22.8873 10.3547C24.3042 8.91341 25.1041 7.82773 25.1041 6.12H24.4041H23.7041C23.7041 7.24427 23.256 7.98259 21.8889 9.37327L22.3881 9.864ZM24.4041 6.12H25.1041C25.1041 3.92043 23.2868 2.372 21.0681 2.372V3.072V3.772C22.6414 3.772 23.7041 4.81557 23.7041 6.12H24.4041ZM21.0681 3.072V2.372C19.3166 2.372 17.8527 3.23337 16.7173 4.73843L17.2761 5.16L17.8349 5.58157C18.7635 4.35063 19.8436 3.772 21.0681 3.772V3.072ZM17.2761 5.16L17.7354 4.63178L16.0794 3.19178L15.6201 3.72L15.1608 4.24822L16.8168 5.68822L17.2761 5.16ZM15.6201 3.72L16.1747 4.14716C17.4094 2.54415 19.1721 1.66 21.2841 1.66V0.959999V0.259999C18.7401 0.259999 16.5668 1.34385 15.0655 3.29284L15.6201 3.72ZM21.2841 0.959999V1.66C24.1894 1.66 26.1521 3.53033 26.1521 5.928H26.8521H27.5521C27.5521 2.61366 24.8108 0.259999 21.2841 0.259999V0.959999Z" fill="#9196E3" mask="url(#path-1-outside-1_2112_552)"/>
</svg>
