<svg width="27" height="19" viewBox="0 0 27 19" fill="none" xmlns="http://www.w3.org/2000/svg">
<mask id="path-1-outside-1_2112_553" maskUnits="userSpaceOnUse" x="0" y="0" width="27" height="19" fill="black">
<rect fill="white" width="27" height="19"/>
<path d="M1.50909 11.616V7.56C1.50909 3.528 4.05309 0.912 7.94109 0.912C11.8291 0.912 14.3731 3.528 14.3731 7.56V11.616C14.3731 15.648 11.8291 18.288 7.94109 18.288C4.05309 18.288 1.50909 15.648 1.50909 11.616ZM11.9491 11.544V7.632C11.9491 4.8 10.4131 3.048 7.94109 3.048C5.46909 3.048 3.93309 4.8 3.93309 7.632V11.544C3.93309 14.376 5.46909 16.152 7.94109 16.152C10.4131 16.152 11.9491 14.4 11.9491 11.544ZM25.9981 15.84V18H16.1581V15.84H19.8541V3.36H16.5421V1.2H22.2781V15.84H25.9981Z"/>
</mask>
<path d="M1.50909 11.616H2.20909V7.56H1.50909H0.809094V11.616H1.50909ZM1.50909 7.56H2.20909C2.20909 5.69253 2.79576 4.21641 3.76982 3.2111C4.74185 2.20788 6.15885 1.612 7.94109 1.612V0.912V0.212C5.83533 0.212 4.03634 0.924115 2.76437 2.2369C1.49443 3.54758 0.809094 5.39546 0.809094 7.56H1.50909ZM7.94109 0.912V1.612C9.72334 1.612 11.1403 2.20788 12.1124 3.2111C13.0864 4.21641 13.6731 5.69253 13.6731 7.56H14.3731H15.0731C15.0731 5.39546 14.3878 3.54758 13.1178 2.2369C11.8458 0.924115 10.0469 0.212 7.94109 0.212V0.912ZM14.3731 7.56H13.6731V11.616H14.3731H15.0731V7.56H14.3731ZM14.3731 11.616H13.6731C13.6731 13.4836 13.0863 14.9665 12.1111 15.9782C11.1383 16.9874 9.72144 17.588 7.94109 17.588V18.288V18.988C10.0487 18.988 11.8478 18.2686 13.1191 16.9498C14.3879 15.6335 15.0731 13.7804 15.0731 11.616H14.3731ZM7.94109 18.288V17.588C6.16075 17.588 4.74384 16.9874 3.77108 15.9782C2.79592 14.9665 2.20909 13.4836 2.20909 11.616H1.50909H0.809094C0.809094 13.7804 1.49427 15.6335 2.76311 16.9498C4.03435 18.2686 5.83344 18.988 7.94109 18.988V18.288ZM11.9491 11.544H12.6491V7.632H11.9491H11.2491V11.544H11.9491ZM11.9491 7.632H12.6491C12.6491 6.09452 12.2316 4.7687 11.3989 3.81705C10.5567 2.85448 9.35276 2.348 7.94109 2.348V3.048V3.748C9.00143 3.748 9.80154 4.11752 10.3453 4.73895C10.8986 5.3713 11.2491 6.33748 11.2491 7.632H11.9491ZM7.94109 3.048V2.348C6.52943 2.348 5.32554 2.85448 4.48329 3.81705C3.65059 4.7687 3.23309 6.09452 3.23309 7.632H3.93309H4.63309C4.63309 6.33748 4.9836 5.3713 5.5369 4.73895C6.08065 4.11752 6.88076 3.748 7.94109 3.748V3.048ZM3.93309 7.632H3.23309V11.544H3.93309H4.63309V7.632H3.93309ZM3.93309 11.544H3.23309C3.23309 13.0814 3.65049 14.412 4.48157 15.369C5.32252 16.3373 6.52637 16.852 7.94109 16.852V16.152V15.452C6.88382 15.452 6.08367 15.0787 5.53862 14.451C4.9837 13.812 4.63309 12.8386 4.63309 11.544H3.93309ZM7.94109 16.152V16.852C9.35289 16.852 10.5573 16.3454 11.3998 15.379C12.2323 14.4239 12.6491 13.0921 12.6491 11.544H11.9491H11.2491C11.2491 12.8519 10.8979 13.8241 10.3444 14.459C9.80085 15.0826 9.00129 15.452 7.94109 15.452V16.152ZM25.9981 15.84H26.6981V15.14H25.9981V15.84ZM25.9981 18V18.7H26.6981V18H25.9981ZM16.1581 18H15.4581V18.7H16.1581V18ZM16.1581 15.84V15.14H15.4581V15.84H16.1581ZM19.8541 15.84V16.54H20.5541V15.84H19.8541ZM19.8541 3.36H20.5541V2.66H19.8541V3.36ZM16.5421 3.36H15.8421V4.06H16.5421V3.36ZM16.5421 1.2V0.499999H15.8421V1.2H16.5421ZM22.2781 1.2H22.9781V0.499999H22.2781V1.2ZM22.2781 15.84H21.5781V16.54H22.2781V15.84ZM25.9981 15.84H25.2981V18H25.9981H26.6981V15.84H25.9981ZM25.9981 18V17.3H16.1581V18V18.7H25.9981V18ZM16.1581 18H16.8581V15.84H16.1581H15.4581V18H16.1581ZM16.1581 15.84V16.54H19.8541V15.84V15.14H16.1581V15.84ZM19.8541 15.84H20.5541V3.36H19.8541H19.1541V15.84H19.8541ZM19.8541 3.36V2.66H16.5421V3.36V4.06H19.8541V3.36ZM16.5421 3.36H17.2421V1.2H16.5421H15.8421V3.36H16.5421ZM16.5421 1.2V1.9H22.2781V1.2V0.499999H16.5421V1.2ZM22.2781 1.2H21.5781V15.84H22.2781H22.9781V1.2H22.2781ZM22.2781 15.84V16.54H25.9981V15.84V15.14H22.2781V15.84Z" fill="#9196E3" mask="url(#path-1-outside-1_2112_553)"/>
</svg>
