<svg width="31" height="20" viewBox="0 0 31 20" fill="none" xmlns="http://www.w3.org/2000/svg">
<mask id="path-1-outside-1_2112_555" maskUnits="userSpaceOnUse" x="0" y="0.433594" width="31" height="19" fill="black">
<rect fill="white" y="0.433594" width="31" height="19"/>
<path d="M1.16925 12.0496V7.99359C1.16925 3.96159 3.71325 1.34559 7.60125 1.34559C11.4893 1.34559 14.0333 3.96159 14.0333 7.99359V12.0496C14.0333 16.0816 11.4893 18.7216 7.60125 18.7216C3.71325 18.7216 1.16925 16.0816 1.16925 12.0496ZM11.6093 11.9776V8.06559C11.6093 5.23359 10.0733 3.48159 7.60125 3.48159C5.12925 3.48159 3.59325 5.23359 3.59325 8.06559V11.9776C3.59325 14.8096 5.12925 16.5856 7.60125 16.5856C10.0733 16.5856 11.6093 14.8336 11.6093 11.9776ZM24.855 18.4336V14.1616H16.191V12.3616L24.159 1.63359H27.279V12.0016H29.487V14.1616H27.279V18.4336H24.855ZM19.047 12.0016H24.855V4.12959L19.047 12.0016Z"/>
</mask>
<path d="M1.16925 12.0496H1.86925V7.99359H1.16925H0.46925V12.0496H1.16925ZM1.16925 7.99359H1.86925C1.86925 6.12613 2.45591 4.65001 3.42998 3.64469C4.402 2.64148 5.81901 2.04559 7.60125 2.04559V1.34559V0.645594C5.49549 0.645594 3.6965 1.35771 2.42452 2.67049C1.15459 3.98118 0.46925 5.82906 0.46925 7.99359H1.16925ZM7.60125 1.34559V2.04559C9.38349 2.04559 10.8005 2.64148 11.7725 3.64469C12.7466 4.65001 13.3333 6.12613 13.3333 7.99359H14.0333H14.7333C14.7333 5.82906 14.0479 3.98118 12.778 2.67049C11.506 1.35771 9.70701 0.645594 7.60125 0.645594V1.34559ZM14.0333 7.99359H13.3333V12.0496H14.0333H14.7333V7.99359H14.0333ZM14.0333 12.0496H13.3333C13.3333 13.9172 12.7464 15.4001 11.7713 16.4118C10.7985 17.421 9.3816 18.0216 7.60125 18.0216V18.7216V19.4216C9.70891 19.4216 11.508 18.7022 12.7792 17.3834C14.0481 16.0671 14.7333 14.2139 14.7333 12.0496H14.0333ZM7.60125 18.7216V18.0216C5.8209 18.0216 4.404 17.421 3.43123 16.4118C2.45607 15.4001 1.86925 13.9172 1.86925 12.0496H1.16925H0.46925C0.46925 14.2139 1.15443 16.0671 2.42327 17.3834C3.6945 18.7022 5.4936 19.4216 7.60125 19.4216V18.7216ZM11.6093 11.9776H12.3093V8.06559H11.6093H10.9093V11.9776H11.6093ZM11.6093 8.06559H12.3093C12.3093 6.52812 11.8918 5.2023 11.0591 4.25064C10.2168 3.28807 9.01292 2.78159 7.60125 2.78159V3.48159V4.18159C8.66158 4.18159 9.46169 4.55111 10.0054 5.17255C10.5587 5.80489 10.9093 6.77107 10.9093 8.06559H11.6093ZM7.60125 3.48159V2.78159C6.18958 2.78159 4.98569 3.28807 4.14345 4.25064C3.31075 5.2023 2.89325 6.52812 2.89325 8.06559H3.59325H4.29325C4.29325 6.77107 4.64375 5.80489 5.19705 5.17255C5.74081 4.55111 6.54092 4.18159 7.60125 4.18159V3.48159ZM3.59325 8.06559H2.89325V11.9776H3.59325H4.29325V8.06559H3.59325ZM3.59325 11.9776H2.89325C2.89325 13.515 3.31065 14.8456 4.14173 15.8026C4.98267 16.7709 6.18653 17.2856 7.60125 17.2856V16.5856V15.8856C6.54397 15.8856 5.74383 15.5123 5.19877 14.8846C4.64385 14.2456 4.29325 13.2722 4.29325 11.9776H3.59325ZM7.60125 16.5856V17.2856C9.01305 17.2856 10.2175 16.779 11.0599 15.8126C11.8925 14.8575 12.3093 13.5257 12.3093 11.9776H11.6093H10.9093C10.9093 13.2855 10.558 14.2577 10.0046 14.8926C9.461 15.5162 8.66145 15.8856 7.60125 15.8856V16.5856ZM24.855 18.4336H24.155V19.1336H24.855V18.4336ZM24.855 14.1616H25.555V13.4616H24.855V14.1616ZM16.191 14.1616H15.491V14.8616H16.191V14.1616ZM16.191 12.3616L15.629 11.9442L15.491 12.1301V12.3616H16.191ZM24.159 1.63359V0.933593H23.807L23.597 1.21621L24.159 1.63359ZM27.279 1.63359H27.979V0.933593H27.279V1.63359ZM27.279 12.0016H26.579V12.7016H27.279V12.0016ZM29.487 12.0016H30.187V11.3016H29.487V12.0016ZM29.487 14.1616V14.8616H30.187V14.1616H29.487ZM27.279 14.1616V13.4616H26.579V14.1616H27.279ZM27.279 18.4336V19.1336H27.979V18.4336H27.279ZM19.047 12.0016L18.4837 11.586L17.6606 12.7016H19.047V12.0016ZM24.855 12.0016V12.7016H25.555V12.0016H24.855ZM24.855 4.12959H25.555V2.00179L24.2917 3.714L24.855 4.12959ZM24.855 18.4336H25.555V14.1616H24.855H24.155V18.4336H24.855ZM24.855 14.1616V13.4616H16.191V14.1616V14.8616H24.855V14.1616ZM16.191 14.1616H16.891V12.3616H16.191H15.491V14.1616H16.191ZM16.191 12.3616L16.753 12.779L24.721 2.05097L24.159 1.63359L23.597 1.21621L15.629 11.9442L16.191 12.3616ZM24.159 1.63359V2.33359H27.279V1.63359V0.933593H24.159V1.63359ZM27.279 1.63359H26.579V12.0016H27.279H27.979V1.63359H27.279ZM27.279 12.0016V12.7016H29.487V12.0016V11.3016H27.279V12.0016ZM29.487 12.0016H28.787V14.1616H29.487H30.187V12.0016H29.487ZM29.487 14.1616V13.4616H27.279V14.1616V14.8616H29.487V14.1616ZM27.279 14.1616H26.579V18.4336H27.279H27.979V14.1616H27.279ZM27.279 18.4336V17.7336H24.855V18.4336V19.1336H27.279V18.4336ZM19.047 12.0016V12.7016H24.855V12.0016V11.3016H19.047V12.0016ZM24.855 12.0016H25.555V4.12959H24.855H24.155V12.0016H24.855ZM24.855 4.12959L24.2917 3.714L18.4837 11.586L19.047 12.0016L19.6103 12.4172L25.4183 4.54518L24.855 4.12959Z" fill="#9196E3" mask="url(#path-1-outside-1_2112_555)"/>
</svg>
